<group>
loop_mode=no_loop
ampeg_release=0.250
volume=-4.0

<region>
sample=Mandolin_Picking_mf.G2.wav
pitch_keycenter=55
lokey=0
hikey=56
tune=0

<region>
sample=Mandolin_Picking_mf.A2.wav
pitch_keycenter=57
lokey=57
hikey=58
tune=0

<region>
sample=Mandolin_Picking_mf.B2.wav
pitch_keycenter=59
lokey=59
hikey=59
tune=0

<region>
sample=Mandolin_Picking_mf.C3.wav
pitch_keycenter=60
lokey=60
hikey=61
tune=0

<region>
sample=Mandolin_Picking_mf.D3.wav
pitch_keycenter=62
lokey=62
hikey=63
tune=0

<region>
sample=Mandolin_Picking_mf.E3.wav
pitch_keycenter=64
lokey=64
hikey=64
tune=0

<region>
sample=Mandolin_Picking_mf.F3.wav
pitch_keycenter=65
lokey=65
hikey=66
tune=0

<region>
sample=Mandolin_Picking_mf.G3.wav
pitch_keycenter=67
lokey=67
hikey=68
tune=0

<region>
sample=Mandolin_Picking_mf.A3.wav
pitch_keycenter=69
lokey=69
hikey=70
tune=0

<region>
sample=Mandolin_Picking_mf.B3.wav
pitch_keycenter=71
lokey=71
hikey=71
tune=0

<region>
sample=Mandolin_Picking_mf.C4.wav
pitch_keycenter=72
lokey=72
hikey=73
tune=0

<region>
sample=Mandolin_Picking_mf.D4.wav
pitch_keycenter=74
lokey=74
hikey=75
tune=0

<region>
sample=Mandolin_Picking_mf.E4.wav
pitch_keycenter=76
lokey=76
hikey=76
tune=0

<region>
sample=Mandolin_Picking_mf.F4.wav
pitch_keycenter=77
lokey=77
hikey=78
tune=0

<region>
sample=Mandolin_Picking_mf.G4.wav
pitch_keycenter=79
lokey=79
hikey=80
tune=0

<region>
sample=Mandolin_Picking_mf.A4.wav
pitch_keycenter=81
lokey=81
hikey=82
tune=0

<region>
sample=Mandolin_Picking_mf.B4.wav
pitch_keycenter=83
lokey=83
hikey=83
tune=0

<region>
sample=Mandolin_Picking_mf.C5.wav
pitch_keycenter=84
lokey=84
hikey=85
tune=0

<region>
sample=Mandolin_Picking_mf.D5.wav
pitch_keycenter=86
lokey=86
hikey=87
tune=0

<region>
sample=Mandolin_Picking_mf.E5.wav
pitch_keycenter=88
lokey=88
hikey=127
tune=0


